<svg xmlns="http://www.w3.org/2000/svg" xml:space="preserve" fill="#231f20" fill-rule="evenodd" stroke-miterlimit="10"
    clip-rule="evenodd" font-family="SUIT Variable" viewBox="0 0 595.44 841.92">
    <text x="56.693" y="71.253" fill="#0c9344" font-size="16" font-weight="800">④</text>
    <text x="75.445" y="69.277" font-size="14" font-weight="700">다음 계산을 해 보세요.</text>

    <text x="78.032" y="132.943" fill="#0c9344" font-size="11" font-weight="800" text-anchor="end">1)</text>
    <text y="135.491" font-size="18" font-weight="600">
        <tspan x="92.693" letter-spacing="17.5">2+1</tspan>
        <tspan x="177.149">=</tspan>
    </text>
    <path fill="none" stroke="#0c9344"
        d="M232.485 143.527h-19.886a4.645 4.645 0 0 1-4.645-4.646v-19.885a4.645 4.645 0 0 1 4.645-4.646h19.886a4.646 4.646 0 0 1 4.646 4.646v19.885a4.646 4.646 0 0 1-4.646 4.646Z" />

    <text x="326.063" y="132.943" fill="#0c9344" font-size="11" font-weight="800" text-anchor="end">2)</text>
    <text y="135.491" font-size="18" font-weight="600">
        <tspan x="340.724" letter-spacing="17.5">2-1</tspan>
        <tspan x="424.46">=</tspan>
    </text>
    <path fill="none" stroke="#0c9344"
        d="M480.437 143.527h-19.886a4.645 4.645 0 0 1-4.645-4.646v-19.885a4.645 4.645 0 0 1 4.645-4.646h19.886a4.646 4.646 0 0 1 4.646 4.646v19.885a4.646 4.646 0 0 1-4.646 4.646Z" />

    <text x="78.032" y="224.618" fill="#0c9344" font-size="11" font-weight="800" text-anchor="end">3)</text>
    <text y="227.166" font-size="18" font-weight="600">
        <tspan x="92.693" letter-spacing="17.5">3-2</tspan>
        <tspan x="177.239">=</tspan>
    </text>
    <path fill="none" stroke="#0c9344" transform="translate(0, 91.675)"
        d="M232.485 143.527h-19.886a4.645 4.645 0 0 1-4.645-4.646v-19.885a4.645 4.645 0 0 1 4.645-4.646h19.886a4.646 4.646 0 0 1 4.646 4.646v19.885a4.646 4.646 0 0 1-4.646 4.646Z" />

    <text x="326.063" y="224.618" fill="#0c9344" font-size="11" font-weight="800" text-anchor="end">4)</text>
    <text y="227.166" font-size="18" font-weight="600">
        <tspan x="340.724" letter-spacing="17.5">2+3</tspan>
        <tspan x="425.99">=</tspan>
    </text>
    <path fill="none" stroke="#0c9344" transform="translate(0, 91.675)"
        d="M480.437 143.527h-19.886a4.645 4.645 0 0 1-4.645-4.646v-19.885a4.645 4.645 0 0 1 4.645-4.646h19.886a4.646 4.646 0 0 1 4.646 4.646v19.885a4.646 4.646 0 0 1-4.646 4.646Z" />

    <g font-size="10">
        <text y="795.077" x="56.693" font-weight="600">배움 10.</text>
        <text y="795.077" x="91.903" font-weight="500">덧셈과 뺄셈</text>
        <text y="795.077" x="528.983">51</text>
    </g>
</svg>
